<?xml version="1.0" encoding="utf-8"?>
<!-- Generator: Adobe Illustrator 21.1.0, SVG Export Plug-In . SVG Version: 6.00 Build 0)  -->
<svg version="1.1" id="Layer_1" xmlns="http://www.w3.org/2000/svg" xmlns:xlink="http://www.w3.org/1999/xlink" x="0px" y="0px"
	 viewBox="0 0 72 24" style="enable-background:new 0 0 72 24;" xml:space="preserve">
<style type="text/css">
	.st0{fill:#97B4D2;}
	.st1{fill:#FFFFFF;}
	.st2{opacity:0.7;fill:#D4313D;enable-background:new    ;}
	.st3{fill:#D4313D;}
	.st4{fill:#979797;}
</style>
<path class="st0" d="M19.7,17.6l-3.1-3.1c-0.5,0.7-1,1.2-1.7,1.7l3.2,3.1c0.2,0.2,0.5,0.4,0.8,0.4s0.6-0.1,0.8-0.4
	c0.2-0.2,0.4-0.5,0.4-0.8C20,18.1,19.9,17.8,19.7,17.6z"/>
<path class="st1" d="M16.5,14.4C16.6,14.3,16.6,14.3,16.5,14.4c0.1-0.2,0.2-0.4,0.3-0.5c0-0.1,0.1-0.1,0.1-0.2
	c0.1-0.1,0.1-0.2,0.2-0.4c0-0.1,0.1-0.1,0.1-0.2c0-0.1,0.1-0.2,0.1-0.3c0.2-0.7,0.4-1.4,0.4-2.1c0-0.9-0.2-1.7-0.5-2.5
	s-0.8-1.5-1.4-2.1s-1.3-1-2.1-1.4c-0.8-0.3-1.6-0.5-2.5-0.5S9.5,4.4,8.7,4.7C7.8,5.1,7.1,5.6,6.6,6.1C6,6.7,5.5,7.4,5.2,8.2
	C4.8,9,4.7,9.8,4.7,10.7s0.2,1.7,0.5,2.5s0.8,1.5,1.4,2.1c0.6,0.6,1.3,1,2.1,1.4C9,16.9,9.4,17,9.8,17.1c0.4,0.1,0.8,0.1,1.3,0.1
	C13.4,17.2,15.4,16.1,16.5,14.4z M8.2,13.6C7.4,12.8,7,11.9,7,10.7c0-1.1,0.4-2.1,1.2-2.9C9,7,10,6.6,11.2,6.6
	c1.1,0,2.1,0.4,2.9,1.2c0.8,0.8,1.2,1.8,1.2,2.9s-0.4,2.1-1.2,2.9c-0.8,0.8-1.8,1.2-2.9,1.2C10,14.9,9,14.5,8.2,13.6z"/>
<g>
	<path class="st2" d="M42.7,17.6l-3.1-3.1c-0.5,0.7-1,1.2-1.7,1.7l3.2,3.1c0.2,0.2,0.5,0.4,0.8,0.4s0.6-0.1,0.8-0.4
		c0.2-0.2,0.4-0.5,0.4-0.8C43,18.1,42.9,17.8,42.7,17.6z"/>
	<path class="st3" d="M39.5,14.4C39.6,14.3,39.6,14.3,39.5,14.4c0.1-0.2,0.2-0.4,0.3-0.5c0-0.1,0.1-0.1,0.1-0.2
		c0.1-0.1,0.1-0.2,0.2-0.4c0-0.1,0.1-0.1,0.1-0.2c0-0.1,0.1-0.2,0.1-0.3c0.2-0.7,0.4-1.4,0.4-2.1c0-0.9-0.2-1.7-0.5-2.5
		s-0.8-1.5-1.4-2.1c-0.6-0.6-1.3-1-2.1-1.4c-0.8-0.3-1.6-0.5-2.5-0.5s-1.7,0.2-2.5,0.5s-1.5,0.8-2.1,1.4s-1,1.3-1.4,2.1
		c-0.3,0.8-0.5,1.6-0.5,2.5s0.2,1.7,0.5,2.5s0.8,1.5,1.4,2.1s1.3,1,2.1,1.4c0.4,0.2,0.8,0.3,1.2,0.4s0.8,0.1,1.3,0.1
		C36.4,17.2,38.4,16.1,39.5,14.4z M31.2,13.6c-0.8-0.8-1.2-1.8-1.2-2.9s0.4-2.1,1.2-2.9C32,7,33,6.6,34.2,6.6c1.1,0,2.1,0.4,2.9,1.2
		c0.8,0.8,1.2,1.8,1.2,2.9s-0.4,2.1-1.2,2.9c-0.8,0.8-1.8,1.2-2.9,1.2C33,14.9,32,14.5,31.2,13.6z"/>
</g>
<g>
	<g>
		<path class="st4" d="M63.6,9.7L61.3,12l2.3,2.3c0.3,0.3,0.3,0.9,0,1.3c-0.2,0.2-0.4,0.3-0.6,0.3c-0.2,0-0.5-0.1-0.6-0.3L60,13.3
			l-2.3,2.3c-0.2,0.2-0.4,0.3-0.6,0.3c-0.2,0-0.5-0.1-0.6-0.3c-0.3-0.3-0.3-0.9,0-1.3l2.3-2.3l-2.3-2.3c-0.3-0.3-0.3-0.9,0-1.3
			c0.3-0.3,0.9-0.3,1.3,0l2.3,2.3l2.3-2.3c0.3-0.3,0.9-0.3,1.3,0C63.9,8.8,63.9,9.3,63.6,9.7L63.6,9.7z M63.6,9.7"/>
	</g>
</g>
</svg>
